<svg xmlns="http://www.w3.org/2000/svg" width="32" height="32" viewBox="0 0 32 32" fill="none">
<path fill-rule="evenodd" clip-rule="evenodd" d="M5.66797 25.3333C5.66797 24.781 6.11569 24.3333 6.66797 24.3333H25.3346C25.8869 24.3333 26.3346 24.781 26.3346 25.3333C26.3346 25.8855 25.8869 26.3333 25.3346 26.3333H6.66797C6.11569 26.3333 5.66797 25.8855 5.66797 25.3333ZM9.66797 29.3333C9.66797 28.781 10.1157 28.3333 10.668 28.3333H21.3346C21.8869 28.3333 22.3346 28.781 22.3346 29.3333C22.3346 29.8855 21.8869 30.3333 21.3346 30.3333H10.668C10.1157 30.3333 9.66797 29.8855 9.66797 29.3333Z" fill="#FFCF4D"/>
<path fill-rule="evenodd" clip-rule="evenodd" d="M16.0013 1.66663C16.5536 1.66663 17.0013 2.11435 17.0013 2.66663V3.99996C17.0013 4.55224 16.5536 4.99996 16.0013 4.99996C15.449 4.99996 15.0013 4.55224 15.0013 3.99996V2.66663C15.0013 2.11435 15.449 1.66663 16.0013 1.66663ZM5.86612 5.86477C6.25664 5.47425 6.88981 5.47425 7.28033 5.86477L7.80411 6.38856C8.19463 6.77908 8.19463 7.41224 7.80411 7.80277C7.41358 8.19329 6.78042 8.19329 6.3899 7.80277L5.86612 7.27899C5.4756 6.88847 5.4756 6.25529 5.86612 5.86477ZM26.1361 5.86512C26.5266 6.25564 26.5266 6.88881 26.1361 7.27933L25.6124 7.80312C25.2218 8.19364 24.5886 8.19364 24.1981 7.80312C23.8076 7.41259 23.8076 6.77943 24.1981 6.38891L24.722 5.86512C25.1125 5.4746 25.7456 5.4746 26.1361 5.86512ZM1.66797 16C1.66797 15.4477 2.11569 15 2.66797 15H4.0013C4.55358 15 5.0013 15.4477 5.0013 16C5.0013 16.5522 4.55358 17 4.0013 17H2.66797C2.11569 17 1.66797 16.5522 1.66797 16ZM27.0013 16C27.0013 15.4477 27.449 15 28.0013 15H29.3346C29.8869 15 30.3346 15.4477 30.3346 16C30.3346 16.5522 29.8869 17 29.3346 17H28.0013C27.449 17 27.0013 16.5522 27.0013 16Z" fill="#FFCF4D"/>
<path d="M7.0013 16C7.0013 17.5704 7.4041 19.0477 8.11153 20.3333H2.66797C2.11569 20.3333 1.66797 20.7811 1.66797 21.3333C1.66797 21.8856 2.11569 22.3333 2.66797 22.3333H15.0013V15.7476L14.0417 16.7071C13.6512 17.0976 13.018 17.0976 12.6275 16.7071C12.237 16.3165 12.237 15.6835 12.6275 15.2929L15.2942 12.6262C15.6848 12.2357 16.3178 12.2357 16.7084 12.6262L19.375 15.2929C19.7656 15.6835 19.7656 16.3165 19.375 16.7071C18.9845 17.0976 18.3514 17.0976 17.9609 16.7071L17.0013 15.7476V22.3333H29.3346C29.8869 22.3333 30.3346 21.8856 30.3346 21.3333C30.3346 20.7811 29.8869 20.3333 29.3346 20.3333H23.891C24.5985 19.0477 25.0013 17.5704 25.0013 16C25.0013 11.0294 20.9718 7 16.0013 7C11.0307 7 7.0013 11.0294 7.0013 16Z" fill="#FFCF4D"/>
</svg>