<svg xmlns="http://www.w3.org/2000/svg" width="32" height="32" viewBox="0 0 32 32" fill="none">
<path fill-rule="evenodd" clip-rule="evenodd" d="M4.46484 26.4186C4.46484 25.8022 4.96462 25.3024 5.58112 25.3024H26.4183C27.0348 25.3024 27.5346 25.8022 27.5346 26.4186C27.5346 27.0351 27.0348 27.5349 26.4183 27.5349H5.58112C4.96462 27.5349 4.46484 27.0351 4.46484 26.4186ZM8.92996 30.8838C8.92996 30.2673 9.42974 29.7675 10.0462 29.7675H21.9532C22.5697 29.7675 23.0695 30.2673 23.0695 30.8838C23.0695 31.5003 22.5697 32.0001 21.9532 32.0001H10.0462C9.42974 32.0001 8.92996 31.5003 8.92996 30.8838Z" fill="#FFCF4D"/>
<path fill-rule="evenodd" clip-rule="evenodd" d="M16 0C16.6165 0 17.1163 0.499781 17.1163 1.11628V2.60465C17.1163 3.22115 16.6165 3.72094 16 3.72094C15.3835 3.72094 14.8837 3.22115 14.8837 2.60465V1.11628C14.8837 0.499781 15.3835 0 16 0ZM4.6863 4.68631C5.12223 4.25038 5.82903 4.25038 6.26496 4.68631L6.84965 5.271C7.28558 5.70693 7.28558 6.41372 6.84965 6.84966C6.41371 7.28559 5.70692 7.28559 5.271 6.84966L4.6863 6.26497C4.25037 5.82904 4.25037 5.12224 4.6863 4.68631ZM27.3133 4.6867C27.7492 5.12263 27.7492 5.82943 27.3133 6.26536L26.7286 6.85005C26.2927 7.28598 25.5859 7.28598 25.1499 6.85005C24.714 6.4141 24.714 5.70732 25.1499 5.27139L25.7347 4.6867C26.1706 4.25077 26.8773 4.25077 27.3133 4.6867ZM0 16C0 15.3835 0.49978 14.8837 1.11628 14.8837H2.60465C3.22115 14.8837 3.72093 15.3835 3.72093 16C3.72093 16.6165 3.22115 17.1163 2.60465 17.1163H1.11628C0.49978 17.1163 0 16.6165 0 16ZM28.2791 16C28.2791 15.3835 28.7789 14.8837 29.3953 14.8837H30.8837C31.5002 14.8837 32 15.3835 32 16C32 16.6165 31.5002 17.1163 30.8837 17.1163H29.3953C28.7789 17.1163 28.2791 16.6165 28.2791 16Z" fill="#FFCF4D"/>
<path d="M5.95349 16.0001C5.95349 17.7531 6.40313 19.4022 7.19281 20.8373H1.11628C0.49978 20.8373 0 21.3371 0 21.9536C0 22.5701 0.49978 23.0699 1.11628 23.0699H30.8837C31.5002 23.0699 32 22.5701 32 21.9536C32 21.3371 31.5002 20.8373 30.8837 20.8373H24.8071C25.5969 19.4022 26.0465 17.7531 26.0465 16.0001C26.0465 10.8289 22.1395 6.57018 17.1163 6.01489V11.8166L18.1875 10.7455C18.6234 10.3095 19.3301 10.3095 19.766 10.7455C20.202 11.1814 20.202 11.8882 19.766 12.3241L16.7893 15.3009C16.3533 15.7368 15.6467 15.7368 15.2107 15.3009L12.2339 12.3241C11.798 11.8882 11.798 11.1814 12.2339 10.7455C12.6699 10.3095 13.3766 10.3095 13.8125 10.7455L14.8837 11.8166V6.01489C9.86053 6.57018 5.95349 10.8289 5.95349 16.0001Z" fill="#FFCF4D"/>
</svg>