<svg xmlns="http://www.w3.org/2000/svg" width="34" height="34" viewBox="0 0 34 34" fill="none">
<path fill-rule="evenodd" clip-rule="evenodd" d="M8.85286 7.79167C8.85286 6.88105 9.12289 5.99088 9.62881 5.23373C10.1347 4.47658 10.8538 3.88645 11.6951 3.53797C12.5364 3.18949 13.4621 3.09832 14.3553 3.27597C15.2484 3.45362 16.0688 3.89213 16.7127 4.53603C17.3566 5.17994 17.7951 6.00032 17.9727 6.89344C18.1504 7.78656 18.0592 8.71231 17.7107 9.55361C17.3622 10.3949 16.7721 11.114 16.015 11.6199C15.2578 12.1258 14.3676 12.3958 13.457 12.3958H4.2487C3.96691 12.3958 3.69665 12.2839 3.4974 12.0846C3.29814 11.8854 3.1862 11.6151 3.1862 11.3333C3.1862 11.0515 3.29814 10.7813 3.4974 10.582C3.69665 10.3828 3.96691 10.2708 4.2487 10.2708H13.457C13.9474 10.2708 14.4267 10.1254 14.8344 9.85302C15.2421 9.58061 15.5598 9.19341 15.7475 8.7404C15.9351 8.2874 15.9842 7.78892 15.8886 7.30801C15.7929 6.8271 15.5568 6.38535 15.2101 6.03863C14.8633 5.69192 14.4216 5.4558 13.9407 5.36014C13.4598 5.26448 12.9613 5.31358 12.5083 5.50122C12.0553 5.68886 11.6681 6.00662 11.3957 6.41432C11.1233 6.82201 10.9779 7.30134 10.9779 7.79167V8.29742C10.9779 8.57921 10.8659 8.84946 10.6667 9.04872C10.4674 9.24798 10.1972 9.35992 9.91536 9.35992C9.63357 9.35992 9.36332 9.24798 9.16406 9.04872C8.96481 8.84946 8.85286 8.57921 8.85286 8.29742V7.79167ZM20.1862 10.625C20.1862 9.43419 20.5393 8.27013 21.2009 7.28001C21.8625 6.28989 22.8028 5.51818 23.903 5.06248C25.0031 4.60677 26.2137 4.48754 27.3816 4.71986C28.5496 4.95217 29.6224 5.5256 30.4644 6.36763C31.3064 7.20966 31.8799 8.28247 32.1122 9.4504C32.3445 10.6183 32.2253 11.8289 31.7696 12.9291C31.3139 14.0292 30.5421 14.9696 29.552 15.6311C28.5619 16.2927 27.3978 16.6458 26.207 16.6458H2.83203C2.55024 16.6458 2.27999 16.5339 2.08073 16.3346C1.88147 16.1354 1.76953 15.8651 1.76953 15.5833C1.76953 15.3015 1.88147 15.0313 2.08073 14.832C2.27999 14.6328 2.55024 14.5208 2.83203 14.5208H26.207C26.9776 14.5208 27.7308 14.2923 28.3714 13.8643C29.0121 13.4362 29.5114 12.8277 29.8063 12.1159C30.1012 11.404 30.1783 10.6207 30.028 9.86496C29.8777 9.10924 29.5066 8.41507 28.9618 7.87023C28.417 7.32539 27.7228 6.95435 26.9671 6.80403C26.2114 6.6537 25.428 6.73086 24.7162 7.02572C24.0043 7.32059 23.3958 7.81993 22.9678 8.46059C22.5397 9.10126 22.3112 9.85448 22.3112 10.625V11.3333C22.3112 11.6151 22.1993 11.8854 22 12.0846C21.8007 12.2839 21.5305 12.3958 21.2487 12.3958C20.9669 12.3958 20.6967 12.2839 20.4974 12.0846C20.2981 11.8854 20.1862 11.6151 20.1862 11.3333V10.625ZM4.60286 19.8333C4.60286 19.5515 4.71481 19.2813 4.91406 19.082C5.11332 18.8828 5.38357 18.7708 5.66536 18.7708H26.207C27.3978 18.7708 28.5619 19.124 29.552 19.7855C30.5421 20.4471 31.3139 21.3874 31.7696 22.4876C32.2253 23.5878 32.3445 24.7983 32.1122 25.9663C31.8799 27.1342 31.3064 28.207 30.4644 29.049C29.6224 29.8911 28.5496 30.4645 27.3816 30.6968C26.2137 30.9291 25.0031 30.8099 23.903 30.3542C22.8028 29.8985 21.8625 29.1268 21.2009 28.1367C20.5393 27.1465 20.1862 25.9825 20.1862 24.7917V24.0833C20.1862 23.8015 20.2981 23.5313 20.4974 23.332C20.6967 23.1328 20.9669 23.0208 21.2487 23.0208C21.5305 23.0208 21.8007 23.1328 22 23.332C22.1993 23.5313 22.3112 23.8015 22.3112 24.0833V24.7917C22.3112 25.5622 22.5397 26.3154 22.9678 26.9561C23.3958 27.5967 24.0043 28.0961 24.7162 28.3909C25.428 28.6858 26.2114 28.763 26.9671 28.6126C27.7228 28.4623 28.417 28.0913 28.9618 27.5464C29.5066 27.0016 29.8777 26.3074 30.028 25.5517C30.1783 24.796 30.1012 24.0127 29.8063 23.3008C29.5114 22.5889 29.0121 21.9805 28.3714 21.5524C27.7308 21.1243 26.9776 20.8958 26.207 20.8958H5.66536C5.38357 20.8958 5.11332 20.7839 4.91406 20.5846C4.71481 20.3854 4.60286 20.1151 4.60286 19.8333Z" fill="white"/>
</svg>
